<?xml version="1.0" encoding="UTF-8" standalone="no"?>
<!-- Created with Inkscape (http://www.inkscape.org/) -->

<svg
   version="1.1"
   id="svg1"
   width="757.84106"
   height="167.9393"
   viewBox="0 0 757.84106 167.9393"
   xmlns="http://www.w3.org/2000/svg"
   xmlns:svg="http://www.w3.org/2000/svg">
  <defs
     id="defs1" />
  <g
     id="g1"
     transform="translate(-82.084236,-500.7637)">
    <path
       id="path4"
       style="fill:#ffffff"
       d="m 153.31189,667.74361 c -2.06858,-0.40115 -3.97129,-0.93961 -4.22824,-1.19657 -0.25696,-0.25696 -0.0457,-3.05716 0.46952,-6.22266 0.83517,-5.13149 1.70013,-6.63314 7.97824,-13.85104 6.6359,-7.62924 7.04152,-8.37423 7.04152,-12.93296 0,-2.66057 -0.18625,-4.83739 -0.4139,-4.83739 -0.22764,0 -2.79337,2.99032 -5.70161,6.64516 -5.5564,6.98283 -6.50427,6.9735 -5.45049,-0.0536 0.49245,-3.28387 2.04759,-5.94052 6.66425,-11.38457 5.56032,-6.55682 5.99815,-7.42606 5.71183,-11.33989 l -0.31008,-4.23873 -4.43335,5.88576 c -2.43835,3.23716 -4.59169,5.41075 -4.78521,4.83019 -0.29485,-0.88454 6.36469,-47.40873 9.72306,-67.92623 0.54752,-3.34506 0.96125,-11.22006 0.91939,-17.5 l -0.0761,-11.41809 -10.87707,56 c -5.98239,30.8 -12.10889,62.6375 -13.61445,70.75 -2.13889,11.52517 -3.07832,14.74983 -4.29681,14.74921 -0.85769,-4.3e-4 -4.36059,-1.32595 -7.78421,-2.9456 -21.96633,-10.39183 -37.911736,-29.01313 -45.429806,-53.05361 -2.05332,-6.56589 -2.344,-9.49276 -2.33389,-23.5 0.0112,-15.45691 0.12198,-16.31739 3.26464,-25.35059 7.5518,-21.70671 21.014846,-37.74591 40.261576,-47.96562 26.13565,-13.87761 55.86961,-13.47065 81.96223,1.12179 10.19565,5.70198 24.99244,20.49877 30.69442,30.69442 13.54007,24.21089 14.79116,52.83437 3.37981,77.32637 -3.25203,6.97978 -9.03042,15.86424 -10.65517,16.38268 -0.59451,0.1897 -14.09451,-27.84058 -30,-62.28951 l -28.91906,-62.63442 -0.25606,78.60744 -0.25606,78.60744 -7.24394,-0.115 c -3.98417,-0.0632 -8.93641,-0.44322 -11.00498,-0.84438 z m 32.90778,-9.6915 c -0.35571,-4.20798 -0.64674,-10.20941 -0.64674,-13.3365 v -5.68563 l 14.25,2.68633 c 7.8375,1.47749 14.35293,2.61349 14.47873,2.52445 0.1258,-0.089 -0.48094,-2.65657 -1.34832,-5.7056 l -1.57704,-5.54371 -13.27366,-2.76397 -13.27365,-2.76396 -0.55494,-6.12002 c -0.30522,-3.36601 -0.37275,-6.30221 -0.15007,-6.52489 0.22267,-0.22268 5.40804,0.59196 11.52302,1.81031 6.11499,1.21834 11.24323,2.07092 11.39608,1.89462 0.15286,-0.1763 -1.91471,-7.97055 -4.59461,-17.32055 -2.67989,-9.35 -4.74461,-17.3858 -4.58826,-17.85733 0.32454,-0.97877 24.71272,60.27358 24.71272,62.06744 0,1.21434 -8.8559,8.31425 -15.01424,12.03714 -3.65657,2.2105 -18.12064,8.25275 -19.75561,8.25275 -0.51517,0 -1.22771,-3.44289 -1.58341,-7.65088 z" />
    <text
       xml:space="preserve"
       style="font-size:32px;line-height:0;font-family:'EB Garamond';-inkscape-font-specification:'EB Garamond';letter-spacing:0px;word-spacing:0px;fill:#ffffff"
       x="290.38388"
       y="574.41309"
       id="text1"><tspan
         id="tspan1"
         x="290.38388"
         y="574.41309"
         style="font-style:normal;font-variant:normal;font-weight:normal;font-stretch:normal;font-size:85.3333px;line-height:1.25;font-family:'Lucida Fax';-inkscape-font-specification:'Lucida Fax';letter-spacing:4px;fill:#ffffff">Schoolcraft</tspan><tspan
         x="290.38388"
         y="648.76196"
         id="tspan2"
         style="font-style:normal;font-variant:normal;font-weight:normal;font-stretch:normal;font-size:64px;line-height:0.85;font-family:'Lucida Fax';-inkscape-font-specification:'Lucida Fax';letter-spacing:4px;fill:#ffffff">College®</tspan></text>
  </g>
</svg>
